<svg xmlns="http://www.w3.org/2000/svg" viewBox="0 0 500 350"><defs><style>.cls-1{fill:#96c93d;}</style></defs><g id="Carb_OT_co" data-name="Carb OT co"><rect x="296.38" y="6.88" width="10.51" height="0.69"/><rect x="301.29" y="1.97" width="0.69" height="10.51"/><rect x="365.2" y="6.88" width="10.51" height="0.69"/><rect x="370.11" y="1.97" width="0.68" height="10.51"/><rect x="227.56" y="75.56" width="10.5" height="0.69"/><rect x="232.47" y="70.65" width="0.69" height="10.51"/><rect x="296.38" y="75.56" width="10.51" height="0.69"/><rect x="301.29" y="70.65" width="0.69" height="10.51"/><rect x="365.2" y="75.56" width="10.51" height="0.69"/><rect x="370.11" y="70.65" width="0.68" height="10.51"/><rect x="158.73" y="144.25" width="10.51" height="0.69"/><rect x="163.65" y="139.34" width="0.69" height="10.51"/><rect x="227.56" y="144.25" width="10.5" height="0.69"/><rect x="232.47" y="139.34" width="0.69" height="10.51"/><rect x="296.38" y="144.25" width="10.51" height="0.69"/><rect x="301.29" y="139.34" width="0.69" height="10.51"/><rect x="158.73" y="212.94" width="10.51" height="0.68"/><rect x="163.65" y="208.03" width="0.69" height="10.51"/><rect x="227.89" y="212.94" width="10.51" height="0.68"/><rect x="232.8" y="208.03" width="0.69" height="10.51"/><rect x="227.56" y="41.01" width="10.5" height="0.69"/><rect x="232.47" y="36.1" width="0.69" height="10.51"/><rect x="296.38" y="41.01" width="10.51" height="0.69"/><rect x="301.29" y="36.1" width="0.69" height="10.51"/><rect x="365.2" y="41.01" width="10.51" height="0.69"/><rect x="370.11" y="36.1" width="0.68" height="10.51"/><rect x="158.73" y="109.69" width="10.51" height="0.69"/><rect x="163.65" y="104.78" width="0.69" height="10.51"/><rect x="227.56" y="109.69" width="10.5" height="0.69"/><rect x="232.47" y="104.78" width="0.69" height="10.51"/><rect x="296.38" y="109.69" width="10.51" height="0.69"/><rect x="301.29" y="104.78" width="0.69" height="10.51"/><rect x="365.2" y="109.69" width="10.51" height="0.69"/><rect x="370.11" y="104.78" width="0.68" height="10.51"/><rect x="158.73" y="178.38" width="10.51" height="0.69"/><rect x="163.65" y="173.47" width="0.69" height="10.51"/><rect x="227.56" y="178.38" width="10.5" height="0.69"/><rect x="232.47" y="173.47" width="0.69" height="10.51"/><rect x="296.38" y="178.38" width="10.51" height="0.69"/><rect x="301.29" y="173.47" width="0.69" height="10.51"/><rect x="158.73" y="247.07" width="10.51" height="0.68"/><rect x="163.65" y="242.16" width="0.69" height="10.51"/><rect x="227.89" y="247.07" width="10.51" height="0.68"/><rect x="232.8" y="242.16" width="0.69" height="10.51"/><rect x="262.25" y="6.88" width="10.51" height="0.69"/><rect x="267.16" y="1.97" width="0.69" height="10.51"/><rect x="331.07" y="6.88" width="10.51" height="0.69"/><rect x="335.98" y="1.97" width="0.68" height="10.51"/><rect x="193.43" y="75.56" width="10.5" height="0.69"/><rect x="198.34" y="70.65" width="0.69" height="10.51"/><rect x="262.25" y="75.56" width="10.51" height="0.69"/><rect x="267.16" y="70.65" width="0.69" height="10.51"/><rect x="331.07" y="75.56" width="10.51" height="0.69"/><rect x="335.98" y="70.65" width="0.68" height="10.51"/><rect x="124.61" y="144.25" width="10.51" height="0.69"/><rect x="129.52" y="139.34" width="0.69" height="10.51"/><rect x="193.43" y="144.25" width="10.5" height="0.69"/><rect x="198.34" y="139.34" width="0.69" height="10.51"/><rect x="262.25" y="144.25" width="10.51" height="0.69"/><rect x="267.16" y="139.34" width="0.69" height="10.51"/><rect x="331.07" y="144.25" width="10.51" height="0.69"/><rect x="335.98" y="139.34" width="0.68" height="10.51"/><rect x="124.61" y="212.94" width="10.51" height="0.68"/><rect x="129.52" y="208.03" width="0.69" height="10.51"/><rect x="193.76" y="212.94" width="10.51" height="0.68"/><rect x="198.67" y="208.03" width="0.69" height="10.51"/><rect x="262.25" y="212.94" width="10.51" height="0.68"/><rect x="267.16" y="208.03" width="0.69" height="10.51"/><rect x="262.25" y="41.01" width="10.51" height="0.69"/><rect x="267.16" y="36.1" width="0.69" height="10.51"/><rect x="331.07" y="41.01" width="10.51" height="0.69"/><rect x="335.98" y="36.1" width="0.68" height="10.51"/><rect x="193.43" y="109.69" width="10.5" height="0.69"/><rect x="198.34" y="104.78" width="0.69" height="10.51"/><rect x="262.25" y="109.69" width="10.51" height="0.69"/><rect x="267.16" y="104.78" width="0.69" height="10.51"/><rect x="331.07" y="109.69" width="10.51" height="0.69"/><rect x="335.98" y="104.78" width="0.68" height="10.51"/><rect x="124.61" y="178.38" width="10.51" height="0.69"/><rect x="129.52" y="173.47" width="0.69" height="10.51"/><rect x="193.43" y="178.38" width="10.5" height="0.69"/><rect x="198.34" y="173.47" width="0.69" height="10.51"/><rect x="262.25" y="178.38" width="10.51" height="0.69"/><rect x="267.16" y="173.47" width="0.69" height="10.51"/><rect x="124.61" y="247.07" width="10.51" height="0.68"/><rect x="129.52" y="242.16" width="0.69" height="10.51"/><rect x="193.76" y="247.07" width="10.51" height="0.68"/><rect x="198.67" y="242.16" width="0.69" height="10.51"/><path d="M373.58,287.67a2.72,2.72,0,0,1,0-.28v-.28a1.06,1.06,0,0,0-.21-.59.91.91,0,0,0-.65-.37,1.42,1.42,0,0,0,.55-.18.84.84,0,0,0,.37-.75.94.94,0,0,0-.58-1,3.24,3.24,0,0,0-1-.13h-1.33v3.79h.67v-1.49h.53a1.81,1.81,0,0,1,.74.11.93.93,0,0,1,.35.87v.3l0,.12a.11.11,0,0,1,0,.05s0,0,0,0h.63l0-.05A1.23,1.23,0,0,1,373.58,287.67Zm-1-1.8a1.78,1.78,0,0,1-.64.08h-.6v-1.37h.57a1.66,1.66,0,0,1,.81.15c.17.08.25.27.25.55A.57.57,0,0,1,372.59,285.87Z"/><path d="M372.25,282.57a3.45,3.45,0,0,0-3.44,3.44,3.46,3.46,0,1,0,3.44-3.44Zm2.11,5.56a2.87,2.87,0,0,1-2.11.87,2.82,2.82,0,0,1-2.09-.87,2.91,2.91,0,0,1-.87-2.12,3,3,0,0,1,5.07-2.1,2.89,2.89,0,0,1,.86,2.1A2.94,2.94,0,0,1,374.36,288.13Z"/><path d="M197.14,283c3.1,0,8,.22,10.68,4.23a10.9,10.9,0,0,1,1,9.13,7.53,7.53,0,0,1-4.48,4.48c1.55,1.43,2.14,3,3.05,5l3.63,8.4h-9.7l-2.75-6.46c-1.94-4.57-1.56-4.61-4-4.61h-1.9v11.07h-9.78V283Zm-4.53,13.75H194c2.24,0,4-.17,5-1.46a3.79,3.79,0,0,0,.34-3.41c-1-2.24-3.23-2.37-5.3-2.37h-1.38Z"/><path d="M224.94,283c3.06,0,8.87-.08,11,4.79.94,2.15,1.06,5.55-.67,7.8a7.12,7.12,0,0,1-1.65,1.57,6.61,6.61,0,0,1,4.25,5.28,9.67,9.67,0,0,1-1.65,7.77c-3.24,4.17-8.64,4-11.66,4H212V283Zm-2,12.33c2.46,0,3.19-.26,4.14-1.73a3.2,3.2,0,0,0-.17-2.93c-1-1.2-2.15-1.33-4-1.33h-1.08v6Zm0,12.24c1.6,0,4.53.26,5.69-1.38a3.17,3.17,0,0,0,.13-3.15c-1.08-1.81-4-1.51-5.6-1.51h-1.34v6Z"/><rect x="302.96" y="283.02" width="9.78" height="31.2"/><polygon points="341.53 283.02 341.53 290.65 332.7 290.65 332.7 314.22 322.96 314.22 322.96 290.65 314.08 290.65 314.08 283.02 341.53 283.02"/><polygon points="364.94 283.02 364.94 290.52 352.66 290.52 352.66 294.88 363.99 294.88 363.99 302.11 352.58 302.11 352.58 306.69 365.28 306.69 365.28 314.22 342.88 314.22 342.88 283.02 364.94 283.02"/><path d="M271.07,295.54c-.83-4.87-3.28-9.17-8.67-11.59a17.53,17.53,0,0,0-5.48-1.38,31.09,31.09,0,0,0-4.17,0,17.46,17.46,0,0,0-5.48,1.38c-5.4,2.42-7.84,6.72-8.67,11.59a20.87,20.87,0,0,0,0,6.18c.83,4.87,3.27,9.18,8.67,11.6a17.46,17.46,0,0,0,5.48,1.38,31.09,31.09,0,0,0,4.17,0,17.53,17.53,0,0,0,5.48-1.38c5.39-2.42,7.84-6.73,8.67-11.6a20.87,20.87,0,0,0,0-6.18m-10.69,9a6.57,6.57,0,0,1-11.09,0,15.56,15.56,0,0,1,0-11.84,6.58,6.58,0,0,1,11.09,0,15.56,15.56,0,0,1,0,11.84"/><path d="M170.58,283h-9.69l-11.32,31.2h9.7l1.81-5.86h9.31l1.81,5.86h9.69Zm-7.82,19,3.14-9.35,3,9.35Z"/><path d="M136.36,291.51c2.57-3,10.23-1.79,12.49-.87v-7.52a37.65,37.65,0,0,0-12.23-.21,14.34,14.34,0,0,0-11.25,9.33,19.47,19.47,0,0,0-1,6.45,19,19,0,0,0,1,6.41c2,5.61,5.43,8.39,11.25,9.33a39.7,39.7,0,0,0,12.23-.22v-7.52c-2.37,1-9.36,1.55-12.14-.91-2-1.73-2.51-5.48-2.46-7.11a10,10,0,0,1,2.11-7.16"/><polygon points="292.69 283.02 291.23 283.02 291.23 298.65 280.12 283.02 272.35 283.02 272.35 286.06 272.35 314.22 280.45 314.22 282.05 314.22 282.05 299.1 292.89 314.22 300.92 314.22 300.92 311.18 300.92 283.02 292.69 283.02"/><path d="M129.63,333.78a3.86,3.86,0,0,1-1,.86A3.14,3.14,0,0,1,127,335a3.86,3.86,0,0,1-1-.14,2.22,2.22,0,0,1-.82-.43,1.8,1.8,0,0,1-.53-.71,2.33,2.33,0,0,1-.19-1,2.18,2.18,0,0,1,.33-1.26,2.29,2.29,0,0,1,.87-.76,4.3,4.3,0,0,1,1.24-.4,11,11,0,0,1,1.42-.15l1.31,0v-.29a2,2,0,0,0-.41-1.39,1.78,1.78,0,0,0-1.34-.43,2.33,2.33,0,0,0-1.33.3,1.43,1.43,0,0,0-.56.83l-1.15-.13a2.14,2.14,0,0,1,1-1.52,4,4,0,0,1,2.11-.47,4.26,4.26,0,0,1,1.38.19,2.25,2.25,0,0,1,.92.57,2.07,2.07,0,0,1,.5.91,4.12,4.12,0,0,1,.16,1.21v4.92h-1.23Zm0-2.75-1.22,0a6.94,6.94,0,0,0-1.29.15,2.59,2.59,0,0,0-.81.31,1.24,1.24,0,0,0-.43.49,1.79,1.79,0,0,0-.12.68,1.22,1.22,0,0,0,.34.91,1.57,1.57,0,0,0,1.14.35,2.58,2.58,0,0,0,1.76-.56,1.93,1.93,0,0,0,.63-1.52Z"/><path d="M132.59,327.25h1.26v1.16a3.31,3.31,0,0,1,1.23-1.07,3.17,3.17,0,0,1,1.42-.32,2.41,2.41,0,0,1,1.91.7,3,3,0,0,1,.62,2.06v5h-1.27V330a2.25,2.25,0,0,0-.38-1.48,1.49,1.49,0,0,0-1.17-.44,2.5,2.5,0,0,0-.85.15,2.06,2.06,0,0,0-.75.47,2.5,2.5,0,0,0-.56.68,2.07,2.07,0,0,0-.19.93v4.48h-1.27Z"/><path d="M219.36,332.26a3.36,3.36,0,0,1-1,2.05,3.19,3.19,0,0,1-2.27.75,4.09,4.09,0,0,1-1.53-.28,3,3,0,0,1-1.11-.8,3.46,3.46,0,0,1-.67-1.26,5.37,5.37,0,0,1-.23-1.66,5.12,5.12,0,0,1,.25-1.66,3.37,3.37,0,0,1,.72-1.27,3.15,3.15,0,0,1,1.14-.82,3.68,3.68,0,0,1,1.52-.29,2.78,2.78,0,0,1,3.06,2.5l-1.27.23a4.37,4.37,0,0,0-.2-.67,1.72,1.72,0,0,0-.34-.53,1.55,1.55,0,0,0-.54-.36,2.11,2.11,0,0,0-.75-.12,2.21,2.21,0,0,0-1,.23,1.89,1.89,0,0,0-.69.63,2.75,2.75,0,0,0-.4.94,5.36,5.36,0,0,0-.12,1.16,6.17,6.17,0,0,0,.11,1.16,2.94,2.94,0,0,0,.38.94,2,2,0,0,0,.69.64,2.22,2.22,0,0,0,1,.23,1.78,1.78,0,0,0,1.37-.47,2.31,2.31,0,0,0,.58-1.27Z"/><path d="M224.11,335.06a4.11,4.11,0,0,1-1.54-.28,3.2,3.2,0,0,1-1.14-.79,3.25,3.25,0,0,1-.72-1.26,5.6,5.6,0,0,1,0-3.34,3.86,3.86,0,0,1,.75-1.28,3.28,3.28,0,0,1,1.16-.81,3.92,3.92,0,0,1,1.52-.28,4,4,0,0,1,1.52.27,3.26,3.26,0,0,1,1.15.8,3.62,3.62,0,0,1,.73,1.25,5.31,5.31,0,0,1,.25,1.66,5.15,5.15,0,0,1-.26,1.68,3.57,3.57,0,0,1-.73,1.28,3.23,3.23,0,0,1-1.17.81A4,4,0,0,1,224.11,335.06Zm0-1.06a2.26,2.26,0,0,0,1-.22,1.89,1.89,0,0,0,.73-.61,2.75,2.75,0,0,0,.42-.95,5,5,0,0,0,.13-1.21,4.85,4.85,0,0,0-.13-1.18,2.64,2.64,0,0,0-.42-.93,2,2,0,0,0-.73-.61,2.62,2.62,0,0,0-2.1,0,2,2,0,0,0-.71.61,2.48,2.48,0,0,0-.42.93,5.6,5.6,0,0,0,0,2.4,2.77,2.77,0,0,0,.41.94,1.79,1.79,0,0,0,.72.61A2.26,2.26,0,0,0,224.12,334Z"/><path d="M229.25,327.25h1.26v1.16a3.58,3.58,0,0,1,1.13-1.05,2.54,2.54,0,0,1,1.26-.34,2.36,2.36,0,0,1,1.37.36,2.17,2.17,0,0,1,.77,1.06,3.57,3.57,0,0,1,1.17-1.07,3,3,0,0,1,1.41-.35,2.35,2.35,0,0,1,1.72.6,2.72,2.72,0,0,1,.61,2v5.24h-1.28v-4.95a3.49,3.49,0,0,0-.09-.86,1.29,1.29,0,0,0-.25-.54,1,1,0,0,0-.42-.28,2,2,0,0,0-.57-.08,2.2,2.2,0,0,0-1.91,1.13,1.76,1.76,0,0,0-.19.81v4.77H234v-4.93a2.18,2.18,0,0,0-.34-1.39,1.25,1.25,0,0,0-1-.39,2,2,0,0,0-1.41.62,3.41,3.41,0,0,0-.48.6,1.85,1.85,0,0,0-.22,1v4.51h-1.28Z"/><path d="M241.68,327.25h1.26v1.08a3.26,3.26,0,0,1,1.09-1,3,3,0,0,1,1.45-.33,3.19,3.19,0,0,1,1.42.29,2.78,2.78,0,0,1,1,.82,3.54,3.54,0,0,1,.6,1.25,6.15,6.15,0,0,1,.2,1.6,5.63,5.63,0,0,1-.24,1.7,3.63,3.63,0,0,1-.67,1.28,3,3,0,0,1-1.06.81,3.38,3.38,0,0,1-2.67,0,2.79,2.79,0,0,1-1.12-.91v3.77h-1.27Zm1.26,4a4.17,4.17,0,0,0,.16,1.25,2.52,2.52,0,0,0,.47.86,1.65,1.65,0,0,0,.7.49,2.56,2.56,0,0,0,.89.15,2.28,2.28,0,0,0,.87-.16,1.76,1.76,0,0,0,.7-.52,2.7,2.7,0,0,0,.46-.93,5,5,0,0,0,.17-1.39,4.67,4.67,0,0,0-.18-1.4,2.54,2.54,0,0,0-.48-.9,1.7,1.7,0,0,0-.67-.48,2,2,0,0,0-.77-.15,2.51,2.51,0,0,0-.92.17,2.06,2.06,0,0,0-.74.5,2.26,2.26,0,0,0-.49.83,3.52,3.52,0,0,0-.17,1.17Z"/><path d="M254.92,333.78a3.71,3.71,0,0,1-1,.86,3.1,3.1,0,0,1-1.56.36,3.81,3.81,0,0,1-1-.14,2.22,2.22,0,0,1-.82-.43,1.92,1.92,0,0,1-.54-.71,2.5,2.5,0,0,1-.19-1,2.18,2.18,0,0,1,.33-1.26,2.32,2.32,0,0,1,.88-.76,4.3,4.3,0,0,1,1.24-.4,10.83,10.83,0,0,1,1.42-.15l1.3,0v-.29a1.91,1.91,0,0,0-.41-1.39,1.74,1.74,0,0,0-1.33-.43,2.33,2.33,0,0,0-1.33.3,1.39,1.39,0,0,0-.56.83L250.1,329a2.18,2.18,0,0,1,1-1.52,4,4,0,0,1,2.1-.47,4.32,4.32,0,0,1,1.39.19,2.21,2.21,0,0,1,.91.57,2,2,0,0,1,.51.91,4.5,4.5,0,0,1,.15,1.21v4.92h-1.23Zm0-2.75-1.21,0a6.94,6.94,0,0,0-1.29.15,2.59,2.59,0,0,0-.81.31,1.17,1.17,0,0,0-.43.49,1.79,1.79,0,0,0-.12.68,1.22,1.22,0,0,0,.34.91,1.57,1.57,0,0,0,1.14.35,2.55,2.55,0,0,0,1.75-.56,1.93,1.93,0,0,0,.63-1.52Z"/><path d="M257.88,327.25h1.26v1.16a3.47,3.47,0,0,1,1.23-1.07,3.21,3.21,0,0,1,1.43-.32,2.43,2.43,0,0,1,1.91.7,3.05,3.05,0,0,1,.62,2.06v5h-1.27V330a2.19,2.19,0,0,0-.39-1.48,1.47,1.47,0,0,0-1.17-.44,2.48,2.48,0,0,0-.84.15,2,2,0,0,0-.75.47,2.33,2.33,0,0,0-.56.68,2,2,0,0,0-.19.93v4.48h-1.28Z"/><path d="M265.84,336.43a2.33,2.33,0,0,0,.82.15,1,1,0,0,0,.72-.24,2.53,2.53,0,0,0,.51-.9l.31-.81L265,327.25h1.48l2.38,5.95,2.19-5.95h1.4l-3.31,8.29a7.7,7.7,0,0,1-.41.9,3.4,3.4,0,0,1-.45.67,1.87,1.87,0,0,1-.59.42,2.37,2.37,0,0,1-.85.13,4.09,4.09,0,0,1-.63,0,3.46,3.46,0,0,1-.61-.16Z"/><path d="M152.22,330.81a4.37,4.37,0,0,1-8.73,0c0-2.49,1.58-4.4,4.69-4.23A4,4,0,0,1,152.22,330.81Zm-5.91-1.56a2.8,2.8,0,0,0-.41,1.55c0,1.26.63,2.4,2,2.4s1.93-1.05,1.93-2.3a2.58,2.58,0,0,0-.67-2,1.74,1.74,0,0,0-1.4-.44A1.61,1.61,0,0,0,146.31,329.25Z"/><path d="M173.45,327.5a2.28,2.28,0,0,1,.81-.64,4.06,4.06,0,0,1,1.48-.28,3.09,3.09,0,0,1,1.44.31c.86.45,1.08,1.19,1.08,2.44v5.56h-2.38v-4.58a3.31,3.31,0,0,0-.11-1.21,1.1,1.1,0,0,0-1.08-.62c-1.25,0-1.25,1-1.25,2v4.39H171v-8.11h2.41Z"/><path d="M169.9,332.79c-.22.46-.92,2.3-4,2.3a3.84,3.84,0,0,1-4.11-4.14c0-1.95,1-4.37,4.17-4.37a3.76,3.76,0,0,1,2.93,1.06,5.48,5.48,0,0,1,1.15,3.64h-5.8a1.82,1.82,0,0,0,1.85,2,2.15,2.15,0,0,0,2-1.43Zm-2.38-3a1.91,1.91,0,0,0-.45-1.15,1.64,1.64,0,0,0-1.16-.45,1.66,1.66,0,0,0-1.22.53,2.16,2.16,0,0,0-.48,1.07Z"/><path d="M203.2,328.47h1.59v-1.69h-1.57v-1.7h-2.38v1.7h-.38l-1.09,1.69h1.47v3.85a3.14,3.14,0,0,0,.34,1.84,2.5,2.5,0,0,0,2.24.79,7.49,7.49,0,0,0,1.26-.13V333l-.86,0c-.63,0-.63-.42-.62-.92Z"/><path d="M179.45,325.08h2.38v1.7h2.47l-1.09,1.69h-1.4v3.6c0,.5,0,.92.62.92l.86,0v1.86A7.49,7.49,0,0,1,182,335a2.5,2.5,0,0,1-2.24-.79,3.14,3.14,0,0,1-.34-1.84Z"/><path d="M207,328.47h-.29V327h-.54v-.25h1.36V327H207Zm2.31,0H209v-1.39l-.08.29-.34,1.1h-.26l-.34-1.1-.09-.28,0,.34v1h-.28v-1.69h.4l.42,1.33.41-1.33h.4Z"/><path d="M191.8,332.8l-.46.7c-.43.63-1.23,1.59-3.53,1.59a3.78,3.78,0,0,1-4-4.14c0-1.95,1-4.37,4.17-4.37a3.73,3.73,0,0,1,2.92,1.06,5.49,5.49,0,0,1,1.16,3.64h-5.81a1.78,1.78,0,0,0,1.78,2,2,2,0,0,0,2-1.43Zm-2.25-3a1.91,1.91,0,0,0-.45-1.15,1.64,1.64,0,0,0-1.16-.45,1.66,1.66,0,0,0-1.22.53,2.16,2.16,0,0,0-.48,1.07Z"/><polygon points="199.95 334.89 196.97 330.62 199.45 326.79 196.73 326.79 195.56 328.6 194.3 326.79 191.57 326.79 194.25 330.62 191.49 334.89 194.22 334.89 195.66 332.65 197.22 334.89 199.95 334.89"/><path d="M155.52,327.5a2.56,2.56,0,0,1,2.12-.92c2,0,3.4,1.51,3.4,4.22,0,1.66-.61,4.29-3.5,4.29a2.59,2.59,0,0,1-2-.92v3.4h-2.4V326.78h2.42Zm1.61.95a1.57,1.57,0,0,0-1.23.61,2.87,2.87,0,0,0-.49,1.78,2.77,2.77,0,0,0,.57,1.87,1.49,1.49,0,0,0,1.07.49c1.17,0,1.68-1.23,1.68-2.42,0-1-.29-2-1.27-2.28A1.26,1.26,0,0,0,157.13,328.45Z"/><path class="cls-1" d="M248.63,83.07c16.64-19.45,66.15-11.51,80.74-5.62V28.91c-22.62-4-55.12-6.06-79-1.41-32,6.23-60.55,25.78-72.68,60.3a124.51,124.51,0,0,0-6.32,41.69c-.31,16.69,2.84,31.75,6.32,41.43,12.81,36.24,35.09,54.22,72.68,60.31,24,4.14,56.42,2.56,79-1.41v-48.6c-15.36,6.64-60.5,10-78.48-5.87-12.71-11.23-16.24-35.44-15.86-46-.38-10.54-.47-29.84,13.6-46.29"/></g></svg>